<svg xmlns="http://www.w3.org/2000/svg" version="1.1" viewBox="105 52.51 490 455">
 <path d="m195.14 53.73c-55.43 2.4609-90.961 7.8984-90.129 16.863 5.5547 31.117 11.598 57.168 26.25 77.094 9.2969 12.449 17 25.023 26.25 34.305v238.02c0 48.32 39.172 87.492 87.496 87.492h157.49c48.324 0 87.496-39.172 87.496-87.492v-314.97h35.988c9.0977 0.011719 16.398 7.418 16.441 16.555l0.28125 111.06 2.8711 2.8398c12.859 12.922 33.723 12.922 46.586 0l2.8359-2.8398-0.28125-147.04c0-18.273-14.762-33.105-32.949-33.109-125.62 5.1562-254.68-0.31641-366.63 1.2266zm216.11 59.715h17.566v332.73h-17.566v-26.234h-69.996v-17.582h69.996v-26.234h-35v-17.445h35v-26.371h-69.996v-17.477h69.996v-26.234h-35v-17.582h35v-26.234h-69.996v-17.445h69.996v-26.371h-35v-17.477h35v-26.234h-69.996v-17.582h69.996z"/>
</svg>