<svg xmlns="http://www.w3.org/2000/svg" version="1.1" viewBox="97.29 70.27 1005.35 1059.4">
 <path d="m998.65 743.26v-0.070312c-1.332-0.76953-2.8438-1.2852-4.2109-2.0156-4.7539-2.5078-9.5742-4.8711-14.555-6.9609-2.7617-1.1758-5.6172-2.1836-8.4102-3.2148-3.9727-1.4531-7.9922-2.8086-12.047-3.9844-3.2031-0.98438-6.4219-1.8242-9.6719-2.6055-3.9492-0.9375-7.9453-1.6914-11.988-2.3398-3.3242-0.58984-6.6719-1.2227-10.078-1.6445-4.7148-0.53906-9.5273-0.73047-14.328-0.91016-2.5195-0.097657-4.9805-0.49219-7.5-0.49219-63.562 0-120.2 31.379-156.18 80.016-1.7266-0.39453-3.3477-0.53906-5.0742-0.91016-38.426-25.332-88.129-40.715-142.55-40.715-32.652 0-65.293 5.4375-95.797 17.207-22.309 8.6055-43.992 19.523-62.566 34.754-5.2578 4.2852-10.199 9.0469-14.773 14.062-6.2148 6.793-10.801 15.047-19.008 19.801-1.6328 0.96094-3.6133 1.6445-5.6523 2.1133h-7.0078c-2.6055-0.53906-5.0273-1.7148-6.6836-4.1758-0.097657-0.14453-0.23828-0.16797-0.32422-0.27734-4.9336-7.8945-4.043-19.754-4.4141-28.715-0.51563-11.016-0.89844-22.031-1.9805-33.023-0.097657-0.9375-0.070313-1.8945-0.16797-2.8789-1.8008-16.105-3.2148-32.27-4.4766-48.469-1.7383-21.047-3.0703-42.348-4.1172-63.098l-0.15625-3.5625c-2.207-42.445-3.2891-87.863 3.3711-132.36 6.2148-41.27 18.562-82.824 35.762-120.17 3.0234-6.5898 6.4922-13.223 9.8398-19.621 2.2578-4.2109 4.5469-8.6289 6.7422-13.031 0.66016-1.2969 1.332-2.7109 2.0391-4.1992 3.5273-7.4531 7.8945-16.668 13.727-20.113 2.293-1.3086 5.2188-1.9336 9.2656-1.9336 2.3867 0 4.9922 0.22656 7.4766 0.40625 1.7773 0.16797 3.6719 0.32422 5.4609 0.37109 3.625 0.16797 7.3086 0.42188 10.969 0.61328 6.707 0.42188 13.668 0.82812 20.578 0.82812 6.2539 0 11.699-0.3125 16.754-1.0547 4.5977-0.64844 8.7617-2.7734 12.457-4.6445 1.1875-0.61328 2.3164-1.1875 3.3711-1.6562 15.133-6.9102 30.613-13.715 45.602-20.23 5.7734-2.5195 11.605-5.0625 17.438-7.6211 11.016 0.5625 21.973 0.66016 32.496-3.4688 14.699-5.7617 19.57-25.105 18.625-39.156-0.22656-3.1562-0.86328-5.8438-1.8828-8.1836-2.9766-6.9727-9.2383-10.547-16.727-12.012 3.1562-9.6602 6.9492-18.254 11.844-28.188l0.42188-0.85156c5.832-11.82 11.867-27.168 6.7305-40.969l-0.046875-0.023438v-0.058593c-7.8008-20.734-94.934-81.121-113.03-93.48-2.7461-2.2305-25.234-20.531-45.238-20.062-13.621 0.3125-58.332 37.391-83.785 59.473-31.848 27.648-69.695 63.602-77.578 77.23-6.0586 10.379-12.84 23.578-13.379 30.707l-7.1406 16.598c-13.344 30.961-31.152 68.258-49.969 107.72-3.1562 6.5898-6.2148 13.199-9.3359 19.777-7.4648 15.707-14.902 31.367-22.234 47.113-1.9688 4.1992-3.9102 8.2578-5.8906 12.516-8.7852 18.91-17.316 37.957-25.824 57.035-30.938 69.781-60.168 143.14-78.926 212.58-2.8789 10.598-5.1953 20.902-7.2344 31.031-1.8125 9.5898-3.7578 19.223-5.0273 28.824-0.3125 2.1367-0.57422 4.2461-0.86328 6.3008-2.2305 18.254-3.8516 36.539-4.3555 54.793 0 0.83984 0 1.6914-0.035156 2.5312-0.42188 19.262 0.34766 38.578 2.8672 57.887 2.7617 21.168 7.0078 42.348 8.9141 63.613v0.070312l0.38281 2.5312c-0.35937 1.8242-0.75781 4.1758-1.2109 6.7695-0.82812 5.9531-1.8125 11.93-2.4492 17.629-0.15625 1.3789-0.22656 2.832-0.35938 4.2461-0.44531 7.6211-0.40625 15.371 1.5977 22.777 2.9648 10.895 11.281 21.168 20.891 28.402 4.3203 2.6289 10.441 6.0703 18.59 10.008 8.6289 3.9844 17.398 7.8242 26.281 11.438 3.6367 1.4297 6.9844 2.832 11.027 4.3086 0.58984 0.23828 1.2461 0.42188 1.8359 0.70703 11.09 4.1523 22.523 7.4531 33.828 11.062 6.1445 1.8945 12.07 3.7305 18.91 5.6055 80.617 22.152 174.11 34.309 263.94 40.969 23.566 1.6914 47.207 3.1211 70.801 4.1992 9.9375 0.44531 19.812 0.9375 29.496 1.2461 26.93 0.86328 53.855 1.4023 80.797 1.5234 5.2695 0.046875 10.895 0.14453 15.961 0.16797 13.98 0 27.926-0.30078 41.879-0.44531 39.098-0.46875 79.141-1.3555 120.52-3.1211l7.4023-0.30078s20.426 0.58984 33.625 0.68359c19.078-1.3789 38.016-3.5898 56.184-8.5078 1.9453-0.49219 9.625-2.7461 17.676-5.4102 10.344-3.3945 21.254-7.5977 21.707-10.152 61.895-34.332 104.15-101.93 104.15-179.63 0.035157-77.605-42.156-145.15-103.99-179.53z"/>
</svg>